<?xml version="1.0" encoding="UTF-8" standalone="no"?>
<svg
   class="svg-icon"
   style="overflow:hidden;fill:currentColor"
   viewBox="0 0 740px 830px"
   version="1.1"
   id="svg2"
   sodipodi:docname="Brush-small.svg"
   inkscape:version="1.3.2 (091e20e, 2023-11-25, custom)"
   width="16px"
   height="16px"
   xmlns:inkscape="http://www.inkscape.org/namespaces/inkscape"
   xmlns:sodipodi="http://sodipodi.sourceforge.net/DTD/sodipodi-0.dtd"
   xmlns="http://www.w3.org/2000/svg"
   xmlns:svg="http://www.w3.org/2000/svg">
  <defs
     id="defs2" />
  <sodipodi:namedview
     id="namedview2"
     pagecolor="#505050"
     bordercolor="#eeeeee"
     borderopacity="1"
     inkscape:showpageshadow="0"
     inkscape:pageopacity="0"
     inkscape:pagecheckerboard="0"
     inkscape:deskcolor="#505050"
     inkscape:zoom="34.780815"
     inkscape:cx="7.0441133"
     inkscape:cy="9.5311166"
     inkscape:window-width="1920"
     inkscape:window-height="1001"
     inkscape:window-x="-9"
     inkscape:window-y="-9"
     inkscape:window-maximized="1"
     inkscape:current-layer="svg2" />
  <path
     id="path1"
     style="fill:#ffffff;stroke-width:1.83051;stroke-linecap:round;stroke-linejoin:round"
     d="M 8.765625,1 6.9729004,3.1806641 4.4401856,1.8937989 4.289795,4.6948243 1.4733886,5.1203613 3.0251465,7.4719238 1,9.4458008 3.6608887,10.452392 3.2011719,13.220947 5.9526368,12.494629 7.2343751,15 9.0270997,12.819335 11.559815,14.106201 11.710205,11.305176 14.526611,10.879639 12.974854,8.5280761 15,6.5541993 12.339111,5.5476074 12.798828,2.7790528 10.047363,3.5053711 Z M 8,4.0625 A 3.9375,3.9375 0 0 1 11.9375,8 3.9375,3.9375 0 0 1 8,11.9375 3.9375,3.9375 0 0 1 4.0625,8 3.9375,3.9375 0 0 1 8,4.0625 Z" />
</svg>
