<?xml version="1.0" encoding="UTF-8" standalone="no"?>
<!-- Created with Inkscape (http://www.inkscape.org/) -->

<svg
   width="20px"
   height="20px"
   viewBox="0 0 59.999954 59.999962"
   version="1.1"
   id="svg1"
   inkscape:version="1.3.2 (091e20e, 2023-11-25, custom)"
   sodipodi:docname="DualCircleEmpty.svg"
   xmlns:inkscape="http://www.inkscape.org/namespaces/inkscape"
   xmlns:sodipodi="http://sodipodi.sourceforge.net/DTD/sodipodi-0.dtd"
   xmlns="http://www.w3.org/2000/svg"
   xmlns:svg="http://www.w3.org/2000/svg">
  <sodipodi:namedview
     id="namedview1"
     pagecolor="#505050"
     bordercolor="#eeeeee"
     borderopacity="1"
     inkscape:showpageshadow="0"
     inkscape:pageopacity="0"
     inkscape:pagecheckerboard="0"
     inkscape:deskcolor="#505050"
     inkscape:document-units="mm"
     inkscape:zoom="32"
     inkscape:cx="5.5625"
     inkscape:cy="6.984375"
     inkscape:window-width="1920"
     inkscape:window-height="1001"
     inkscape:window-x="-9"
     inkscape:window-y="-9"
     inkscape:window-maximized="1"
     inkscape:current-layer="layer1" />
  <defs
     id="defs1" />
  <g
     inkscape:label="Layer 1"
     inkscape:groupmode="layer"
     id="layer1"
     transform="translate(-16.535623,-102.36418)">
    <path
       id="path2"
       style="fill:none;fill-opacity:1;stroke:#ffffff;stroke-width:1.21828;stroke-linecap:round;stroke-linejoin:round;stroke-opacity:1"
       d="m 54.035597,109.86417 c -8.284264,1e-5 -14.999985,6.71573 -14.99999,14.99999 -0.02724,0.002 -0.03515,-0.0176 -0.03515,-0.0176 l 0.03515,0.0176 c -8.284264,1e-5 -14.999984,6.71573 -14.999989,14.99999 5e-6,8.28426 6.715725,14.99998 14.999989,14.99999 8.284264,-1e-5 14.999985,-6.71573 14.99999,-14.99999 l -0.07617,-0.006 c 0.0255,-0.0214 0.05089,-0.0429 0.07617,-0.0645 5.5e-5,0.0234 5.5e-5,0.0469 0,0.0703 8.284264,-10e-6 14.999984,-6.71573 14.999989,-14.99999 -5e-6,-8.28426 -6.715725,-14.99998 -14.999989,-14.99999 z"
       sodipodi:nodetypes="ccccccccccscc" />
  </g>
</svg>
