<?xml version="1.0" encoding="UTF-8" standalone="no"?>
<svg
   class="svg-icon"
   style="overflow:hidden;fill:currentColor"
   viewBox="0 0 740px 830px"
   version="1.1"
   id="svg2"
   sodipodi:docname="Moon.svg"
   inkscape:version="1.3.2 (091e20e, 2023-11-25, custom)"
   width="16px"
   height="16px"
   xmlns:inkscape="http://www.inkscape.org/namespaces/inkscape"
   xmlns:sodipodi="http://sodipodi.sourceforge.net/DTD/sodipodi-0.dtd"
   xmlns="http://www.w3.org/2000/svg"
   xmlns:svg="http://www.w3.org/2000/svg">
  <defs
     id="defs2" />
  <sodipodi:namedview
     id="namedview2"
     pagecolor="#505050"
     bordercolor="#eeeeee"
     borderopacity="1"
     inkscape:showpageshadow="0"
     inkscape:pageopacity="0"
     inkscape:pagecheckerboard="0"
     inkscape:deskcolor="#505050"
     inkscape:zoom="24.59375"
     inkscape:cx="2.0736976"
     inkscape:cy="8.6404066"
     inkscape:window-width="1920"
     inkscape:window-height="1001"
     inkscape:window-x="-9"
     inkscape:window-y="-9"
     inkscape:window-maximized="1"
     inkscape:current-layer="svg2" />
  <path
     id="path2"
     style="fill:#ffffff;stroke-width:2.41316;stroke-linecap:round;stroke-linejoin:round"
     d="M 8,0.5 A 7.5,7.5 0 0 0 7.0112305,0.57141114 5.625,5.625 0 0 1 11.75,6.125 5.625,5.625 0 0 1 6.125,11.75 5.625,5.625 0 0 1 0.57141114,6.996582 7.5,7.5 0 0 0 0.5,8 7.5,7.5 0 0 0 8,15.5 7.5,7.5 0 0 0 15.5,8 7.5,7.5 0 0 0 8,0.5 Z" />
</svg>
