<?xml version="1.0" encoding="UTF-8" standalone="no"?>
<svg
   class="svg-icon"
   style="overflow:hidden;fill:currentColor"
   viewBox="0 0 740px 830px"
   version="1.1"
   id="svg2"
   sodipodi:docname="Sun.svg"
   inkscape:version="1.3.2 (091e20e, 2023-11-25, custom)"
   width="16px"
   height="16px"
   xmlns:inkscape="http://www.inkscape.org/namespaces/inkscape"
   xmlns:sodipodi="http://sodipodi.sourceforge.net/DTD/sodipodi-0.dtd"
   xmlns="http://www.w3.org/2000/svg"
   xmlns:svg="http://www.w3.org/2000/svg">
  <defs
     id="defs2" />
  <sodipodi:namedview
     id="namedview2"
     pagecolor="#505050"
     bordercolor="#eeeeee"
     borderopacity="1"
     inkscape:showpageshadow="0"
     inkscape:pageopacity="0"
     inkscape:pagecheckerboard="0"
     inkscape:deskcolor="#505050"
     inkscape:zoom="34.780815"
     inkscape:cx="6.1240658"
     inkscape:cy="8.9848383"
     inkscape:window-width="1920"
     inkscape:window-height="1001"
     inkscape:window-x="-9"
     inkscape:window-y="-9"
     inkscape:window-maximized="1"
     inkscape:current-layer="svg2" />
  <path
     id="path1"
     style="fill:#ffffff;stroke-width:1.96126;stroke-linecap:round;stroke-linejoin:round"
     d="M 8.8203125 0.5 L 6.9003906 2.8359375 L 4.1855469 1.4570312 L 4.0253906 4.4589844 L 1.0078125 4.9140625 L 2.6699219 7.4335938 L 0.5 9.5488281 L 3.3515625 10.626953 L 2.859375 13.59375 L 5.8066406 12.816406 L 7.1796875 15.5 L 9.0996094 13.164062 L 11.814453 14.542969 L 11.974609 11.541016 L 14.992188 11.085938 L 13.330078 8.5664062 L 15.5 6.4511719 L 12.648438 5.3730469 L 13.140625 2.40625 L 10.193359 3.1835938 L 8.8203125 0.5 z M 8 3.5 A 4.5 4.5 0 0 1 12.5 8 A 4.5 4.5 0 0 1 8 12.5 A 4.5 4.5 0 0 1 3.5 8 A 4.5 4.5 0 0 1 8 3.5 z " />
</svg>
