<?xml version="1.0" encoding="UTF-8" standalone="no"?>
<!-- Created with Inkscape (http://www.inkscape.org/) -->

<svg
   width="20px"
   height="20px"
   viewBox="0 0 59.999954 59.999962"
   version="1.1"
   id="svg1"
   inkscape:version="1.3.2 (091e20e, 2023-11-25, custom)"
   sodipodi:docname="DualCircle.svg"
   xmlns:inkscape="http://www.inkscape.org/namespaces/inkscape"
   xmlns:sodipodi="http://sodipodi.sourceforge.net/DTD/sodipodi-0.dtd"
   xmlns="http://www.w3.org/2000/svg"
   xmlns:svg="http://www.w3.org/2000/svg">
  <sodipodi:namedview
     id="namedview1"
     pagecolor="#505050"
     bordercolor="#eeeeee"
     borderopacity="1"
     inkscape:showpageshadow="0"
     inkscape:pageopacity="0"
     inkscape:pagecheckerboard="0"
     inkscape:deskcolor="#505050"
     inkscape:document-units="mm"
     inkscape:zoom="32"
     inkscape:cx="11"
     inkscape:cy="12.296875"
     inkscape:window-width="1920"
     inkscape:window-height="1001"
     inkscape:window-x="-9"
     inkscape:window-y="-9"
     inkscape:window-maximized="1"
     inkscape:current-layer="layer1" />
  <defs
     id="defs1" />
  <g
     inkscape:label="Layer 1"
     inkscape:groupmode="layer"
     id="layer1"
     transform="translate(-16.535623,-102.36418)">
    <path
       id="path2"
       style="fill:#f9f9f9;stroke-width:1.21828;stroke-linecap:round;stroke-linejoin:round"
       d="M 54.035597 109.86417 A 15.000001 14.999999 0 0 0 39.035607 124.83487 A 11.048567 10.31334 0 0 0 39.00631 124.86416 A 15.000001 14.999999 0 0 0 24.035618 139.86415 A 15.000001 14.999999 0 0 0 39.035607 154.86414 A 15.000001 14.999999 0 0 0 54.029737 139.94033 A 11.048567 10.31334 0 0 0 54.117628 139.86415 A 15.000001 14.999999 0 0 0 69.035586 124.86416 A 15.000001 14.999999 0 0 0 54.035597 109.86417 z " />
  </g>
</svg>
